<?xml version="1.0" standalone="no"?>
<!DOCTYPE svg PUBLIC "-//W3C//DTD SVG 20010904//EN"
 "http://www.w3.org/TR/2001/REC-SVG-20010904/DTD/svg10.dtd">
<svg version="1.0" xmlns="http://www.w3.org/2000/svg"
 width="297.000000pt" height="300.000000pt" viewBox="0 0 2972.000000 3002.000000"
 preserveAspectRatio="xMidYMid meet">

<g transform="translate(0.000000,3002.000000) scale(0.100000,-0.100000)"
fill="#000000" stroke="none">
<path d="M1623 30009 c-269 -45 -546 -340 -667 -713 -78 -237 -106 -521 -126
-1256 -18 -668 -38 -801 -154 -1025 -28 -55 -118 -206 -198 -336 -163 -263
-243 -406 -310 -560 -83 -186 -137 -388 -158 -590 -13 -122 -13 -562 0 -709
40 -454 163 -777 372 -976 136 -128 247 -187 390 -205 149 -19 232 0 421 98
88 46 129 75 199 142 191 181 270 355 434 951 91 331 139 443 263 608 71 93
227 246 336 328 110 83 482 345 569 401 99 64 221 121 285 133 57 11 132 3
246 -26 74 -19 302 -89 372 -116 l52 -19 -19 -47 c-10 -26 -56 -128 -103 -227
-192 -410 -214 -508 -144 -627 35 -60 263 -279 345 -333 99 -63 187 -95 442
-159 385 -97 418 -111 775 -326 121 -72 283 -163 360 -200 134 -66 194 -90
490 -195 202 -73 291 -121 555 -301 283 -192 394 -277 765 -585 634 -526 797
-645 1069 -780 130 -66 151 -82 238 -187 40 -48 156 -173 259 -278 102 -105
263 -283 358 -395 595 -702 1177 -1319 1499 -1588 246 -205 396 -282 672 -346
261 -60 260 -60 855 -60 505 0 553 -1 582 -17 18 -10 64 -56 103 -103 39 -46
98 -104 133 -128 137 -98 396 -226 863 -427 138 -59 291 -128 340 -153 249
-126 490 -309 971 -739 132 -118 295 -260 364 -317 226 -189 237 -204 204
-267 -43 -84 27 -330 100 -348 14 -4 81 1 148 10 115 15 235 14 321 -3 19 -4
55 -33 103 -84 54 -56 91 -85 136 -105 58 -27 70 -29 182 -28 93 1 135 6 185
22 35 12 66 20 67 18 2 -2 -25 -51 -61 -110 -73 -122 -132 -253 -146 -323 -5
-29 -5 -77 0 -118 22 -168 10 -228 -88 -450 -22 -49 -81 -218 -132 -375 -223
-690 -387 -1074 -584 -1368 -199 -299 -366 -471 -538 -558 -68 -34 -74 -35
-183 -35 -186 0 -260 33 -650 290 -297 197 -493 284 -925 414 -461 139 -883
239 -1620 382 -474 92 -561 134 -1350 652 -570 373 -742 474 -1167 684 -628
309 -1384 637 -1893 821 -91 32 -184 70 -206 83 -51 30 -107 92 -232 255 -137
180 -267 306 -362 352 -97 46 -155 59 -260 59 -114 0 -151 -16 -278 -119 -132
-107 -140 -111 -302 -170 -74 -27 -205 -81 -291 -120 -290 -131 -402 -170
-565 -196 -56 -9 -120 -23 -143 -30 -146 -52 -400 -217 -541 -353 -130 -124
-160 -185 -125 -253 24 -46 86 -64 200 -57 75 5 95 4 95 -7 0 -23 36 -46 72
-46 19 0 91 12 159 27 103 22 150 27 279 27 l155 1 156 -67 c85 -37 184 -75
220 -83 45 -12 163 -20 404 -29 325 -12 343 -14 414 -39 91 -32 184 -88 366
-219 189 -136 277 -193 640 -413 801 -486 1132 -712 1530 -1045 220 -185 307
-252 435 -338 223 -148 424 -254 680 -355 161 -64 247 -92 535 -177 77 -23
150 -48 162 -56 12 -7 57 -60 100 -116 184 -245 289 -318 683 -473 319 -126
632 -285 1025 -520 240 -144 731 -470 749 -498 9 -12 22 -55 31 -96 22 -105
89 -229 183 -336 224 -256 598 -530 855 -625 29 -10 129 -37 223 -59 94 -21
193 -50 220 -64 27 -14 108 -67 179 -118 215 -153 491 -343 848 -583 185 -125
337 -231 337 -236 0 -17 -82 -112 -113 -131 -49 -29 -87 -24 -142 18 -56 43
-94 52 -155 40 -64 -12 -233 -98 -312 -158 -214 -161 -575 -687 -635 -924 -25
-98 -24 -486 1 -665 91 -650 339 -1176 674 -1431 134 -101 340 -186 563 -231
104 -21 141 -23 424 -23 281 0 321 2 430 23 264 51 460 110 583 178 179 98
356 286 539 573 159 249 191 353 203 676 5 121 9 410 10 643 0 398 1 422 18
422 10 0 85 -18 167 -41 334 -90 430 -107 797 -139 264 -22 253 -18 410 -144
138 -110 243 -210 326 -311 37 -44 112 -132 167 -195 127 -146 155 -185 215
-315 51 -108 72 -130 117 -119 16 5 24 -5 45 -53 38 -85 96 -271 187 -596 170
-606 290 -907 527 -1322 136 -240 224 -430 345 -747 l62 -163 13 -235 c18
-299 39 -509 119 -1165 69 -572 98 -864 115 -1155 12 -225 31 -961 24 -972 -3
-4 -27 -8 -53 -8 -59 0 -147 -16 -231 -41 -35 -11 -120 -26 -188 -34 -230 -27
-232 -29 -240 -201 -5 -113 -5 -115 -36 -141 -82 -69 -208 -100 -471 -113
-271 -14 -434 -62 -531 -155 -77 -74 -77 -163 1 -217 94 -66 338 -75 625 -22
196 35 249 34 470 -12 l185 -39 255 1 c272 0 333 6 550 55 88 19 198 35 315
44 250 20 272 24 338 53 71 31 143 107 188 198 28 56 33 78 37 164 l5 100 31
0 c87 1 218 56 290 123 55 50 116 150 116 189 0 17 -7 31 -19 38 -30 16 -116
12 -237 -10 -129 -25 -277 -31 -295 -13 -10 10 -10 42 -1 150 46 537 75 1533
76 2563 1 1079 0 1089 -170 1599 -229 684 -294 1002 -409 1981 -82 699 -131
1004 -213 1331 -27 107 -54 231 -60 277 -15 109 -55 201 -140 319 -81 114
-114 177 -133 253 -20 79 -17 638 5 915 32 410 43 493 167 1275 161 1014 206
1221 331 1508 27 65 139 295 247 512 194 389 269 560 296 669 9 37 17 198 25
481 12 454 8 557 -30 718 -11 46 -20 90 -20 97 0 8 34 67 76 131 112 172 239
386 344 579 51 94 109 195 129 225 19 30 142 161 272 290 254 253 271 276 290
391 13 80 6 165 -32 394 -65 390 -188 1165 -200 1262 -16 136 -10 151 156 372
269 360 295 421 795 1851 317 908 417 1178 555 1495 68 156 508 1029 540 1071
22 29 32 34 68 34 23 0 78 -9 122 -21 115 -29 341 -37 458 -15 186 35 359 115
507 234 198 158 285 325 322 613 14 118 18 867 6 1329 l-7 275 82 48 c178 104
346 237 442 350 75 89 123 125 269 205 380 207 631 439 881 812 94 141 242
439 289 580 74 228 103 460 93 760 -10 288 -42 458 -117 618 -101 215 -265
363 -451 407 -82 19 -246 19 -327 0 -145 -34 -288 -126 -457 -292 -123 -121
-207 -222 -450 -543 -293 -387 -384 -499 -510 -628 -138 -143 -237 -223 -490
-397 -253 -175 -334 -237 -414 -316 -158 -158 -248 -333 -269 -524 l-7 -70
-40 3 c-22 1 -105 15 -185 30 -182 34 -346 37 -430 8 -30 -10 -136 -56 -235
-101 -99 -46 -225 -97 -280 -114 -210 -64 -333 -159 -845 -646 -1120 -1067
-1476 -1484 -1969 -2304 -191 -318 -431 -748 -921 -1656 -521 -963 -620 -1134
-677 -1166 -74 -43 -247 -61 -568 -61 -301 1 -472 11 -776 47 -113 14 -354 38
-535 55 -546 50 -783 82 -1151 155 -622 125 -1131 320 -2818 1080 -1200 540
-1217 547 -2140 790 -912 240 -1198 336 -1565 521 -338 170 -642 374 -1065
714 -361 290 -576 485 -1065 964 -477 468 -509 495 -799 667 -102 61 -233 145
-291 187 -174 126 -317 221 -439 294 -148 89 -534 279 -716 353 -331 135 -330
134 -552 298 -213 157 -279 200 -389 255 -156 78 -247 104 -394 109 -137 6
-208 -6 -309 -52 -29 -14 -60 -25 -67 -25 -63 0 -993 630 -1432 969 l-93 72
39 29 c103 74 96 219 -19 364 -83 105 -160 160 -393 277 -269 136 -297 154
-626 399 -399 298 -491 354 -608 379 -61 13 -173 13 -249 0z"/>
</g>
</svg>
